<?xml version="1.0" encoding="iso-8859-1"?>
<!-- Generator: Adobe Illustrator 19.0.0, SVG Export Plug-In . SVG Version: 6.00 Build 0)  -->
<svg version="1.1" id="Layer_1" xmlns="http://www.w3.org/2000/svg" xmlns:xlink="http://www.w3.org/1999/xlink" x="0px" y="0px"
	 viewBox="0 0 512 512" style="enable-background:new 0 0 512 512;" xml:space="preserve">
<g>
	<g>
		<g>
			<path d="M308.25,446.677c-4.608-0.563-8.926,2.765-9.489,7.45c-0.563,4.685,2.773,8.934,7.458,9.498
				c34.944,4.207,48.461,11.196,51.669,14.276c-6.221,6.545-42.871,17.033-101.888,17.033s-95.667-10.487-101.888-17.033
				c3.191-3.063,16.623-10.018,51.319-14.234c4.685-0.563,8.021-4.821,7.45-9.498c-0.572-4.676-4.872-7.987-9.498-7.441
				c-44.356,5.385-66.85,15.863-66.85,31.138C136.533,511.044,243.772,512,256,512c12.228,0,119.467-0.956,119.467-34.133
				C375.467,462.549,352.853,452.053,308.25,446.677z"/>
			<path d="M256,85.333c-47.053,0-85.333,38.281-85.333,85.333S208.947,256,256,256s85.333-38.281,85.333-85.333
				S303.053,85.333,256,85.333z M256,238.933c-37.64,0-68.267-30.626-68.267-68.267c0-37.641,30.626-68.267,68.267-68.267
				s68.267,30.626,68.267,68.267C324.267,208.307,293.641,238.933,256,238.933z"/>
			<path d="M256,0C161.894,0,85.333,76.561,85.333,170.667c0,53.171,34.176,104.934,35.576,107.034l127.94,196.292
				c1.579,2.415,4.267,3.874,7.151,3.874c2.884,0,5.572-1.459,7.151-3.874L390.724,278.4c1.468-2.202,35.942-54.562,35.942-107.733
				C426.667,76.561,350.106,0,256,0z M376.474,269.005L256,453.709L135.151,268.297c-0.324-0.486-32.751-49.579-32.751-97.63
				c0-84.693,68.907-153.6,153.6-153.6s153.6,68.907,153.6,153.6C409.6,218.598,376.849,268.442,376.474,269.005z"/>
		</g>
	</g>
</g>
<g>
</g>
<g>
</g>
<g>
</g>
<g>
</g>
<g>
</g>
<g>
</g>
<g>
</g>
<g>
</g>
<g>
</g>
<g>
</g>
<g>
</g>
<g>
</g>
<g>
</g>
<g>
</g>
<g>
</g>
</svg>
