<?xml version="1.0" encoding="iso-8859-1"?>
<!-- Generator: Adobe Illustrator 19.0.0, SVG Export Plug-In . SVG Version: 6.00 Build 0)  -->
<svg version="1.1" id="Layer_1" xmlns="http://www.w3.org/2000/svg" xmlns:xlink="http://www.w3.org/1999/xlink" x="0px" y="0px"
	 viewBox="0 0 512 512" style="enable-background:new 0 0 512 512;" xml:space="preserve">
<g>
	<g>
		<g>
			<path d="M44.22,238.997c0.512,0,1.033-0.043,1.553-0.136c4.634-0.853,7.706-5.308,6.844-9.941
				c-0.939-5.094-1.417-10.334-1.417-15.59c0-47.053,38.289-85.333,85.333-85.333c23.569,0,45.5,9.404,61.773,26.47
				c3.251,3.405,8.644,3.533,12.075,0.282c3.405-3.251,3.533-8.653,0.282-12.058c-19.524-20.48-45.85-31.753-74.129-31.753
				c-56.465,0-102.4,45.935-102.4,102.391c0,6.289,0.58,12.578,1.698,18.688C36.591,236.13,40.183,238.997,44.22,238.997z"/>
			<path d="M381.244,120.862c-3.951,2.569-5.069,7.851-2.492,11.802c9.02,13.841,13.781,29.935,13.781,46.541
				c0,4.71,3.814,8.533,8.533,8.533s8.533-3.823,8.533-8.533c0-19.917-5.726-39.236-16.546-55.851
				C390.477,119.394,385.203,118.285,381.244,120.862z"/>
			<path d="M196.096,115.025c3.908,2.645,9.216,1.587,11.836-2.321c22.281-33.169,59.383-52.975,99.268-52.975
				c65.877,0,119.467,53.598,119.467,119.475c0,10.82-1.442,21.538-4.292,31.855c-1.254,4.548,1.408,9.242,5.956,10.496
				c0.759,0.213,1.519,0.316,2.278,0.316c3.746,0,7.177-2.483,8.218-6.263c3.26-11.802,4.907-24.047,4.907-36.403
				c0-75.29-61.252-136.542-136.533-136.542c-45.577,0-87.979,22.63-113.434,60.527
				C191.147,107.098,192.188,112.405,196.096,115.025z"/>
			<path d="M97.502,157.333c-12.638,8.823-22.016,21.777-26.402,36.489c-1.348,4.523,1.229,9.276,5.743,10.624
				c0.811,0.239,1.638,0.35,2.432,0.35c3.686,0,7.074-2.389,8.175-6.093c3.294-11.034,10.325-20.753,19.823-27.366
				c3.866-2.697,4.804-8.021,2.116-11.887C106.692,155.593,101.376,154.628,97.502,157.333z"/>
			<path d="M247.467,332.796h-55.322l46.097-107.563c1.86-4.335-0.145-9.353-4.48-11.204c-4.301-1.86-9.353,0.145-11.204,4.471
				l-51.2,119.467c-1.135,2.645-0.853,5.675,0.717,8.064c1.587,2.398,4.258,3.831,7.125,3.831h55.33l-46.106,107.571
				c-1.852,4.335,0.154,9.353,4.489,11.204c1.092,0.478,2.227,0.7,3.354,0.7c3.311,0,6.46-1.946,7.842-5.171l51.2-119.467
				c1.135-2.645,0.862-5.675-0.717-8.064C253.013,334.238,250.334,332.796,247.467,332.796z"/>
			<path d="M332.8,366.929h-38.878l21.274-56.73c1.647-4.42-0.589-9.335-4.992-10.991c-4.42-1.647-9.335,0.58-10.991,4.992
				l-25.6,68.267c-0.99,2.628-0.623,5.555,0.973,7.859c1.596,2.304,4.215,3.669,7.014,3.669h35.806l-34.5,55.219
				c-2.5,3.994-1.289,9.259,2.705,11.759c1.408,0.879,2.978,1.297,4.514,1.297c2.842,0,5.623-1.425,7.245-4.019l42.667-68.267
				c1.647-2.628,1.732-5.939,0.23-8.653C338.756,368.619,335.898,366.929,332.8,366.929z"/>
			<path d="M204.8,375.462c0-4.71-3.814-8.533-8.533-8.533h-128c-28.228,0-51.2-22.963-51.2-51.2
				c0-28.228,22.972-51.191,51.2-51.191c4.719,0,8.533-3.823,8.533-8.533c0-4.719-3.814-8.533-8.533-8.533
				C30.626,247.471,0,278.089,0,315.729c0,37.649,30.626,68.267,68.267,68.267h128C200.986,383.996,204.8,380.181,204.8,375.462z"/>
			<path d="M468.625,197.918c-3.866-2.714-9.182-1.801-11.887,2.048c-2.731,3.849-1.809,9.173,2.039,11.895
				c22.639,15.991,36.156,42.061,36.156,69.743c0,47.053-38.281,85.325-85.333,85.325h-42.667c-4.719,0-8.533,3.823-8.533,8.533
				c0,4.719,3.814,8.533,8.533,8.533H409.6c56.465,0,102.4-45.935,102.4-102.391C512,248.393,495.787,217.109,468.625,197.918z"/>
		</g>
	</g>
</g>
<g>
</g>
<g>
</g>
<g>
</g>
<g>
</g>
<g>
</g>
<g>
</g>
<g>
</g>
<g>
</g>
<g>
</g>
<g>
</g>
<g>
</g>
<g>
</g>
<g>
</g>
<g>
</g>
<g>
</g>
</svg>
